<svg width="24" height="24" viewBox="0 0 24 24" fill="none" xmlns="http://www.w3.org/2000/svg">
<path d="M21.71 20.2899L16.31 14.8999C17.407 13.5024 18.0022 11.7766 18 9.99994C18 8.41769 17.5308 6.87097 16.6518 5.55538C15.7727 4.23979 14.5233 3.21441 13.0615 2.60891C11.5997 2.00341 9.99113 1.84498 8.43928 2.15366C6.88743 2.46234 5.46197 3.22427 4.34315 4.34309C3.22433 5.46191 2.4624 6.88737 2.15372 8.43922C1.84504 9.99107 2.00347 11.5996 2.60897 13.0614C3.21447 14.5232 4.23985 15.7726 5.55544 16.6517C6.87104 17.5308 8.41775 17.9999 10 17.9999C11.7767 18.0022 13.5025 17.4069 14.9 16.3099L20.29 21.7099C20.383 21.8037 20.4936 21.8781 20.6154 21.9288C20.7373 21.9796 20.868 22.0057 21 22.0057C21.132 22.0057 21.2627 21.9796 21.3846 21.9288C21.5064 21.8781 21.617 21.8037 21.71 21.7099C21.8037 21.617 21.8781 21.5064 21.9289 21.3845C21.9797 21.2627 22.0058 21.132 22.0058 20.9999C22.0058 20.8679 21.9797 20.7372 21.9289 20.6154C21.8781 20.4935 21.8037 20.3829 21.71 20.2899V20.2899ZM4 9.99994C4 8.81326 4.3519 7.65322 5.01119 6.66652C5.67047 5.67983 6.60755 4.91079 7.7039 4.45667C8.80026 4.00254 10.0067 3.88372 11.1705 4.11523C12.3344 4.34674 13.4035 4.91819 14.2426 5.7573C15.0818 6.59642 15.6532 7.66552 15.8847 8.8294C16.1162 9.99329 15.9974 11.1997 15.5433 12.296C15.0892 13.3924 14.3201 14.3295 13.3334 14.9888C12.3467 15.6481 11.1867 15.9999 10 15.9999C8.40871 15.9999 6.88258 15.3678 5.75736 14.2426C4.63215 13.1174 4 11.5912 4 9.99994V9.99994Z" fill="#9AA0A6"/>
</svg>
