<svg width="24" height="24" viewBox="0 0 24 24" fill="none" xmlns="http://www.w3.org/2000/svg">
<path d="M11.9999 16.615C13.2693 16.615 14.3556 16.1631 15.2595 15.2596C16.1631 14.3562 16.615 13.2693 16.615 12V4.61551C16.615 3.34621 16.1635 2.25979 15.2595 1.35588C14.3556 0.45218 13.2693 0 11.9999 0C10.7307 0 9.64419 0.45218 8.74034 1.35588C7.83643 2.25964 7.38455 3.34621 7.38455 4.61551V12C7.38455 13.2692 7.83663 14.3562 8.74034 15.2596C9.64404 16.1631 10.7307 16.615 11.9999 16.615Z" fill="#9AA0A6"/>
<path d="M20.0333 9.50482C19.8511 9.3221 19.6343 9.23071 19.3843 9.23071C19.1345 9.23071 18.9182 9.3221 18.7353 9.50482C18.5528 9.68749 18.4614 9.9038 18.4614 10.1537V12C18.4614 13.7789 17.829 15.3004 16.5646 16.5648C15.3006 17.8293 13.7788 18.4615 11.9999 18.4615C10.2209 18.4615 8.69936 17.8293 7.43486 16.5648C6.17052 15.3008 5.53839 13.7789 5.53839 12V10.1537C5.53839 9.9038 5.44701 9.68749 5.26439 9.50482C5.08167 9.3221 4.86555 9.23071 4.61539 9.23071C4.36523 9.23071 4.14887 9.3221 3.96625 9.50482C3.78347 9.68749 3.69214 9.9038 3.69214 10.1537V12C3.69214 14.125 4.4014 15.9736 5.81952 17.5456C7.23769 19.1175 8.99009 20.0189 11.0768 20.2495V22.1536H7.3845C7.13449 22.1536 6.91817 22.2451 6.7355 22.4278C6.55278 22.6104 6.46139 22.8268 6.46139 23.0768C6.46139 23.3264 6.55278 23.5432 6.7355 23.7258C6.91817 23.9084 7.13449 24 7.3845 24H16.615C16.8649 24 17.0815 23.9084 17.264 23.7258C17.4469 23.5433 17.5383 23.3264 17.5383 23.0768C17.5383 22.8268 17.4469 22.6104 17.264 22.4278C17.0816 22.2451 16.865 22.1536 16.615 22.1536H12.9232V20.2495C15.0095 20.0189 16.7617 19.1175 18.18 17.5456C19.5984 15.9736 20.3078 14.125 20.3078 12V10.1537C20.3078 9.90386 20.2162 9.68769 20.0333 9.50482Z" fill="#9AA0A6"/>
</svg>
